# xmcd
#
# Track frame offsets: 
#        150
#        20505
#        41910
#        72893
#        97724
#        117198
#        145034
#        165741
#        194622
#
# Disc length: 3043 seconds
#
# Revision: 0
# Processed by: cddbd v1.5.2PL0 Copyright (c) Steve Scherf et al.
# Submitted via: ExactAudioCopy v0.99pb5
#
DISCID=760be109
DTITLE=RejoySing feat. Jnr Robinson - Reason to rejoice
DYEAR=2010
DGENRE=Gospel
TTITLE0=Let us worship
TTITLE1=Reason to rejoice
TTITLE2=Now behold the lamb
TTITLE3=Lost in you again
TTITLE4=Testify to love
TTITLE5=Gotta keep mov'en
TTITLE6=Holy Spirit, I thirst for you
TTITLE7=More than anything
TTITLE8=The Lord's doing
EXTD=
EXTT0=
EXTT1=
EXTT2=
EXTT3=
EXTT4=
EXTT5=
EXTT6=
EXTT7=
EXTT8=
PLAYORDER=
